# xmcd
#
# Track frame offsets:
#	150
#	22190
#	43190
#	68190
#	88505
#	111110
#	131920
#	155163
#	173290
#	196023
#
# Disc length: 2964 seconds
#
# Revision: 2490369
# Processed by: cddbd v1.5.2PL0 Copyright (c) Steve Scherf et al.
# Submitted via: EZCDAudioConverter 8.0.2.1
#
DISCID=840b920a
DTITLE=Various Artist - st. Ngô Thụy Miên
DYEAR=1993
DGENRE=
TTITLE0=Ái Vân - Em về mùa thu
TTITLE1=Duy Quang - Bản tình ca cho em
TTITLE2=Khánh Hà - Từ giọng hát em
TTITLE3=Tuấn Ngọc - Mắt biếc
TTITLE4=Thái Thảo - Giọt nước mắt ngà
TTITLE5=Don Hồ - Tình cuối chân mây
TTITLE6=Như Mai - Giáng ngọc
TTITLE7=Phi Khanh - Mùa thu cho em
TTITLE8=Thái Hiền - Em còn nhớ mùa xuân
TTITLE9=Dalena - Niệm khúc cuối
EXTD=
EXTT0=
EXTT1=
EXTT2=
EXTT3=
EXTT4=
EXTT5=
EXTT6=
EXTT7=
EXTT8=
EXTT9=
PLAYORDER=
